<mxfile host="app.diagrams.net" agent="Mozilla/5.0 (Windows NT 10.0; Win64; x64) AppleWebKit/537.36 (KHTML, like Gecko) Chrome/131.0.0.0 Safari/537.36" version="24.9.2">
  <diagram name="第 1 页" id="lSiaTIj4OIuvE5RLfEA7">
    <mxGraphModel dx="1434" dy="772" grid="1" gridSize="10" guides="1" tooltips="1" connect="1" arrows="1" fold="1" page="1" pageScale="1" pageWidth="1654" pageHeight="1169" math="0" shadow="0">
      <root>
        <mxCell id="0" />
        <mxCell id="1" parent="0" />
        <mxCell id="-JK384dIuW4JueM-Meeo-14" value="" style="edgeStyle=orthogonalEdgeStyle;rounded=0;orthogonalLoop=1;jettySize=auto;html=1;entryX=0.5;entryY=0;entryDx=0;entryDy=0;" parent="1" source="-JK384dIuW4JueM-Meeo-12" target="-JK384dIuW4JueM-Meeo-16" edge="1">
          <mxGeometry relative="1" as="geometry">
            <mxPoint x="600" y="330" as="targetPoint" />
          </mxGeometry>
        </mxCell>
        <mxCell id="-JK384dIuW4JueM-Meeo-12" value="标签查验开始" style="rounded=1;whiteSpace=wrap;html=1;" parent="1" vertex="1">
          <mxGeometry x="540" y="170" width="120" height="60" as="geometry" />
        </mxCell>
        <mxCell id="-JK384dIuW4JueM-Meeo-15" value="省略返回后&lt;div&gt;不进入&lt;div&gt;查验结果页面的&lt;/div&gt;&lt;div&gt;返回结果逻辑&lt;/div&gt;&lt;/div&gt;" style="text;html=1;align=center;verticalAlign=middle;resizable=0;points=[];autosize=1;strokeColor=none;fillColor=none;" parent="1" vertex="1">
          <mxGeometry x="590" y="240" width="110" height="70" as="geometry" />
        </mxCell>
        <mxCell id="-JK384dIuW4JueM-Meeo-18" value="" style="edgeStyle=orthogonalEdgeStyle;rounded=0;orthogonalLoop=1;jettySize=auto;html=1;" parent="1" source="-JK384dIuW4JueM-Meeo-16" target="-JK384dIuW4JueM-Meeo-17" edge="1">
          <mxGeometry relative="1" as="geometry" />
        </mxCell>
        <mxCell id="-JK384dIuW4JueM-Meeo-20" value="" style="edgeStyle=orthogonalEdgeStyle;rounded=0;orthogonalLoop=1;jettySize=auto;html=1;" parent="1" source="-JK384dIuW4JueM-Meeo-16" target="-JK384dIuW4JueM-Meeo-19" edge="1">
          <mxGeometry relative="1" as="geometry" />
        </mxCell>
        <mxCell id="-JK384dIuW4JueM-Meeo-16" value="是否首次查验" style="rhombus;whiteSpace=wrap;html=1;" parent="1" vertex="1">
          <mxGeometry x="560" y="340" width="80" height="80" as="geometry" />
        </mxCell>
        <mxCell id="-JK384dIuW4JueM-Meeo-26" value="" style="edgeStyle=orthogonalEdgeStyle;rounded=0;orthogonalLoop=1;jettySize=auto;html=1;entryX=0;entryY=0.5;entryDx=0;entryDy=0;" parent="1" source="-JK384dIuW4JueM-Meeo-17" target="-JK384dIuW4JueM-Meeo-31" edge="1">
          <mxGeometry relative="1" as="geometry">
            <mxPoint x="827.0000000000002" y="380" as="targetPoint" />
          </mxGeometry>
        </mxCell>
        <mxCell id="-JK384dIuW4JueM-Meeo-28" value="" style="edgeStyle=orthogonalEdgeStyle;rounded=0;orthogonalLoop=1;jettySize=auto;html=1;entryX=0.5;entryY=0;entryDx=0;entryDy=0;" parent="1" source="-JK384dIuW4JueM-Meeo-17" target="-JK384dIuW4JueM-Meeo-38" edge="1">
          <mxGeometry relative="1" as="geometry">
            <mxPoint x="730" y="470" as="targetPoint" />
          </mxGeometry>
        </mxCell>
        <mxCell id="-JK384dIuW4JueM-Meeo-17" value="缓存中是否存在该标签查询数据" style="rhombus;whiteSpace=wrap;html=1;" parent="1" vertex="1">
          <mxGeometry x="690" y="340" width="80" height="80" as="geometry" />
        </mxCell>
        <mxCell id="9acUtYvUh7u0fkvaaSKx-5" value="" style="edgeStyle=orthogonalEdgeStyle;rounded=0;orthogonalLoop=1;jettySize=auto;html=1;" edge="1" parent="1" source="-JK384dIuW4JueM-Meeo-19" target="9acUtYvUh7u0fkvaaSKx-4">
          <mxGeometry relative="1" as="geometry" />
        </mxCell>
        <mxCell id="9acUtYvUh7u0fkvaaSKx-9" value="" style="edgeStyle=orthogonalEdgeStyle;rounded=0;orthogonalLoop=1;jettySize=auto;html=1;" edge="1" parent="1" source="-JK384dIuW4JueM-Meeo-19" target="9acUtYvUh7u0fkvaaSKx-8">
          <mxGeometry relative="1" as="geometry" />
        </mxCell>
        <mxCell id="-JK384dIuW4JueM-Meeo-19" value="生产库能否查到该标签" style="rhombus;whiteSpace=wrap;html=1;" parent="1" vertex="1">
          <mxGeometry x="560" y="690" width="80" height="80" as="geometry" />
        </mxCell>
        <mxCell id="-JK384dIuW4JueM-Meeo-21" value="no" style="text;html=1;align=center;verticalAlign=middle;resizable=0;points=[];autosize=1;strokeColor=none;fillColor=none;" parent="1" vertex="1">
          <mxGeometry x="640" y="348" width="40" height="30" as="geometry" />
        </mxCell>
        <mxCell id="-JK384dIuW4JueM-Meeo-22" value="yes" style="text;html=1;align=center;verticalAlign=middle;resizable=0;points=[];autosize=1;strokeColor=none;fillColor=none;" parent="1" vertex="1">
          <mxGeometry x="600" y="420" width="40" height="30" as="geometry" />
        </mxCell>
        <mxCell id="-JK384dIuW4JueM-Meeo-29" value="yes" style="text;html=1;align=center;verticalAlign=middle;resizable=0;points=[];autosize=1;strokeColor=none;fillColor=none;" parent="1" vertex="1">
          <mxGeometry x="770" y="348" width="40" height="30" as="geometry" />
        </mxCell>
        <mxCell id="-JK384dIuW4JueM-Meeo-30" value="no" style="text;html=1;align=center;verticalAlign=middle;resizable=0;points=[];autosize=1;strokeColor=none;fillColor=none;" parent="1" vertex="1">
          <mxGeometry x="740" y="480" width="40" height="30" as="geometry" />
        </mxCell>
        <mxCell id="-JK384dIuW4JueM-Meeo-33" value="" style="edgeStyle=orthogonalEdgeStyle;rounded=0;orthogonalLoop=1;jettySize=auto;html=1;" parent="1" source="-JK384dIuW4JueM-Meeo-31" target="-JK384dIuW4JueM-Meeo-32" edge="1">
          <mxGeometry relative="1" as="geometry" />
        </mxCell>
        <mxCell id="-JK384dIuW4JueM-Meeo-36" value="" style="edgeStyle=orthogonalEdgeStyle;rounded=0;orthogonalLoop=1;jettySize=auto;html=1;" parent="1" source="-JK384dIuW4JueM-Meeo-31" target="-JK384dIuW4JueM-Meeo-35" edge="1">
          <mxGeometry relative="1" as="geometry" />
        </mxCell>
        <mxCell id="-JK384dIuW4JueM-Meeo-31" value="标签是否失效" style="rhombus;whiteSpace=wrap;html=1;" parent="1" vertex="1">
          <mxGeometry x="820" y="340" width="80" height="80" as="geometry" />
        </mxCell>
        <mxCell id="-JK384dIuW4JueM-Meeo-32" value="return 标签已失效" style="rounded=1;whiteSpace=wrap;html=1;" parent="1" vertex="1">
          <mxGeometry x="950" y="350" width="120" height="60" as="geometry" />
        </mxCell>
        <mxCell id="-JK384dIuW4JueM-Meeo-34" value="yes" style="text;html=1;align=center;verticalAlign=middle;resizable=0;points=[];autosize=1;strokeColor=none;fillColor=none;" parent="1" vertex="1">
          <mxGeometry x="900" y="358" width="40" height="30" as="geometry" />
        </mxCell>
        <mxCell id="-JK384dIuW4JueM-Meeo-35" value="return 正确结果" style="rounded=1;whiteSpace=wrap;html=1;" parent="1" vertex="1">
          <mxGeometry x="800" y="458" width="120" height="60" as="geometry" />
        </mxCell>
        <mxCell id="-JK384dIuW4JueM-Meeo-37" value="no" style="text;html=1;align=center;verticalAlign=middle;resizable=0;points=[];autosize=1;strokeColor=none;fillColor=none;" parent="1" vertex="1">
          <mxGeometry x="860" y="420" width="40" height="30" as="geometry" />
        </mxCell>
        <mxCell id="-JK384dIuW4JueM-Meeo-40" value="" style="edgeStyle=orthogonalEdgeStyle;rounded=0;orthogonalLoop=1;jettySize=auto;html=1;entryX=0;entryY=0.5;entryDx=0;entryDy=0;" parent="1" source="-JK384dIuW4JueM-Meeo-38" target="-JK384dIuW4JueM-Meeo-43" edge="1">
          <mxGeometry relative="1" as="geometry">
            <mxPoint x="830" y="570" as="targetPoint" />
          </mxGeometry>
        </mxCell>
        <mxCell id="-JK384dIuW4JueM-Meeo-56" value="" style="edgeStyle=orthogonalEdgeStyle;rounded=0;orthogonalLoop=1;jettySize=auto;html=1;entryX=0.5;entryY=0;entryDx=0;entryDy=0;exitX=0.5;exitY=1;exitDx=0;exitDy=0;" parent="1" source="-JK384dIuW4JueM-Meeo-38" target="-JK384dIuW4JueM-Meeo-19" edge="1">
          <mxGeometry relative="1" as="geometry">
            <mxPoint x="630" y="570" as="targetPoint" />
            <Array as="points">
              <mxPoint x="730" y="640" />
              <mxPoint x="600" y="640" />
            </Array>
          </mxGeometry>
        </mxCell>
        <mxCell id="-JK384dIuW4JueM-Meeo-38" value="缓存表中是否存在改标签首查记录" style="rhombus;whiteSpace=wrap;html=1;" parent="1" vertex="1">
          <mxGeometry x="690" y="530" width="80" height="80" as="geometry" />
        </mxCell>
        <mxCell id="-JK384dIuW4JueM-Meeo-42" value="yes" style="text;html=1;align=center;verticalAlign=middle;resizable=0;points=[];autosize=1;strokeColor=none;fillColor=none;" parent="1" vertex="1">
          <mxGeometry x="770" y="538" width="40" height="30" as="geometry" />
        </mxCell>
        <mxCell id="-JK384dIuW4JueM-Meeo-45" value="" style="edgeStyle=orthogonalEdgeStyle;rounded=0;orthogonalLoop=1;jettySize=auto;html=1;" parent="1" source="-JK384dIuW4JueM-Meeo-43" target="-JK384dIuW4JueM-Meeo-44" edge="1">
          <mxGeometry relative="1" as="geometry" />
        </mxCell>
        <mxCell id="-JK384dIuW4JueM-Meeo-48" value="" style="edgeStyle=orthogonalEdgeStyle;rounded=0;orthogonalLoop=1;jettySize=auto;html=1;" parent="1" source="-JK384dIuW4JueM-Meeo-43" target="-JK384dIuW4JueM-Meeo-47" edge="1">
          <mxGeometry relative="1" as="geometry" />
        </mxCell>
        <mxCell id="-JK384dIuW4JueM-Meeo-43" value="标签是否失效" style="rhombus;whiteSpace=wrap;html=1;" parent="1" vertex="1">
          <mxGeometry x="820" y="530" width="80" height="80" as="geometry" />
        </mxCell>
        <mxCell id="-JK384dIuW4JueM-Meeo-44" value="return 标签已失效" style="rounded=1;whiteSpace=wrap;html=1;" parent="1" vertex="1">
          <mxGeometry x="950" y="540" width="120" height="60" as="geometry" />
        </mxCell>
        <mxCell id="-JK384dIuW4JueM-Meeo-46" value="yes" style="text;html=1;align=center;verticalAlign=middle;resizable=0;points=[];autosize=1;strokeColor=none;fillColor=none;" parent="1" vertex="1">
          <mxGeometry x="900" y="538" width="40" height="30" as="geometry" />
        </mxCell>
        <mxCell id="-JK384dIuW4JueM-Meeo-47" value="return 正确结果" style="rounded=1;whiteSpace=wrap;html=1;" parent="1" vertex="1">
          <mxGeometry x="800" y="638" width="120" height="60" as="geometry" />
        </mxCell>
        <mxCell id="-JK384dIuW4JueM-Meeo-49" value="no" style="text;html=1;align=center;verticalAlign=middle;resizable=0;points=[];autosize=1;strokeColor=none;fillColor=none;" parent="1" vertex="1">
          <mxGeometry x="860" y="608" width="40" height="30" as="geometry" />
        </mxCell>
        <mxCell id="-JK384dIuW4JueM-Meeo-53" value="no" style="text;html=1;align=center;verticalAlign=middle;resizable=0;points=[];autosize=1;strokeColor=none;fillColor=none;" parent="1" vertex="1">
          <mxGeometry x="690" y="610" width="40" height="30" as="geometry" />
        </mxCell>
        <mxCell id="9acUtYvUh7u0fkvaaSKx-3" value="yes" style="text;html=1;align=center;verticalAlign=middle;resizable=0;points=[];autosize=1;strokeColor=none;fillColor=none;" vertex="1" parent="1">
          <mxGeometry x="560" y="770" width="40" height="30" as="geometry" />
        </mxCell>
        <mxCell id="9acUtYvUh7u0fkvaaSKx-4" value="return 异常标签" style="whiteSpace=wrap;html=1;rounded=1;" vertex="1" parent="1">
          <mxGeometry x="680" y="700" width="120" height="60" as="geometry" />
        </mxCell>
        <mxCell id="9acUtYvUh7u0fkvaaSKx-6" value="no" style="text;html=1;align=center;verticalAlign=middle;resizable=0;points=[];autosize=1;strokeColor=none;fillColor=none;" vertex="1" parent="1">
          <mxGeometry x="640" y="700" width="40" height="30" as="geometry" />
        </mxCell>
        <mxCell id="9acUtYvUh7u0fkvaaSKx-11" value="" style="edgeStyle=orthogonalEdgeStyle;rounded=0;orthogonalLoop=1;jettySize=auto;html=1;" edge="1" parent="1" source="9acUtYvUh7u0fkvaaSKx-8" target="9acUtYvUh7u0fkvaaSKx-10">
          <mxGeometry relative="1" as="geometry" />
        </mxCell>
        <mxCell id="9acUtYvUh7u0fkvaaSKx-17" value="" style="edgeStyle=orthogonalEdgeStyle;rounded=0;orthogonalLoop=1;jettySize=auto;html=1;" edge="1" parent="1" source="9acUtYvUh7u0fkvaaSKx-8" target="9acUtYvUh7u0fkvaaSKx-16">
          <mxGeometry relative="1" as="geometry" />
        </mxCell>
        <mxCell id="9acUtYvUh7u0fkvaaSKx-8" value="索引查询是否作废标签" style="rhombus;whiteSpace=wrap;html=1;" vertex="1" parent="1">
          <mxGeometry x="560" y="810" width="80" height="80" as="geometry" />
        </mxCell>
        <mxCell id="9acUtYvUh7u0fkvaaSKx-13" value="" style="edgeStyle=orthogonalEdgeStyle;rounded=0;orthogonalLoop=1;jettySize=auto;html=1;" edge="1" parent="1" source="9acUtYvUh7u0fkvaaSKx-10" target="9acUtYvUh7u0fkvaaSKx-12">
          <mxGeometry relative="1" as="geometry" />
        </mxCell>
        <mxCell id="9acUtYvUh7u0fkvaaSKx-19" value="" style="edgeStyle=orthogonalEdgeStyle;rounded=0;orthogonalLoop=1;jettySize=auto;html=1;" edge="1" parent="1" source="9acUtYvUh7u0fkvaaSKx-10" target="9acUtYvUh7u0fkvaaSKx-18">
          <mxGeometry relative="1" as="geometry" />
        </mxCell>
        <mxCell id="9acUtYvUh7u0fkvaaSKx-10" value="包码查询是否作废标签" style="rhombus;whiteSpace=wrap;html=1;" vertex="1" parent="1">
          <mxGeometry x="560" y="940" width="80" height="80" as="geometry" />
        </mxCell>
        <mxCell id="9acUtYvUh7u0fkvaaSKx-21" value="" style="edgeStyle=orthogonalEdgeStyle;rounded=0;orthogonalLoop=1;jettySize=auto;html=1;" edge="1" parent="1" source="9acUtYvUh7u0fkvaaSKx-12" target="9acUtYvUh7u0fkvaaSKx-20">
          <mxGeometry relative="1" as="geometry" />
        </mxCell>
        <mxCell id="9acUtYvUh7u0fkvaaSKx-26" value="" style="edgeStyle=orthogonalEdgeStyle;rounded=0;orthogonalLoop=1;jettySize=auto;html=1;" edge="1" parent="1" source="9acUtYvUh7u0fkvaaSKx-12" target="9acUtYvUh7u0fkvaaSKx-25">
          <mxGeometry relative="1" as="geometry" />
        </mxCell>
        <mxCell id="9acUtYvUh7u0fkvaaSKx-12" value="明码查询是否作废标签" style="rhombus;whiteSpace=wrap;html=1;" vertex="1" parent="1">
          <mxGeometry x="560" y="1060" width="80" height="80" as="geometry" />
        </mxCell>
        <mxCell id="9acUtYvUh7u0fkvaaSKx-14" value="no" style="text;html=1;align=center;verticalAlign=middle;resizable=0;points=[];autosize=1;strokeColor=none;fillColor=none;" vertex="1" parent="1">
          <mxGeometry x="560" y="900" width="40" height="30" as="geometry" />
        </mxCell>
        <mxCell id="9acUtYvUh7u0fkvaaSKx-15" value="no" style="text;html=1;align=center;verticalAlign=middle;resizable=0;points=[];autosize=1;strokeColor=none;fillColor=none;" vertex="1" parent="1">
          <mxGeometry x="560" y="1030" width="40" height="30" as="geometry" />
        </mxCell>
        <mxCell id="9acUtYvUh7u0fkvaaSKx-16" value="return 作废标签" style="whiteSpace=wrap;html=1;rounded=1;" vertex="1" parent="1">
          <mxGeometry x="680" y="820" width="120" height="60" as="geometry" />
        </mxCell>
        <mxCell id="9acUtYvUh7u0fkvaaSKx-18" value="return 作废标签" style="whiteSpace=wrap;html=1;rounded=1;" vertex="1" parent="1">
          <mxGeometry x="680" y="950" width="120" height="60" as="geometry" />
        </mxCell>
        <mxCell id="9acUtYvUh7u0fkvaaSKx-20" value="return 作废标签" style="whiteSpace=wrap;html=1;rounded=1;" vertex="1" parent="1">
          <mxGeometry x="680" y="1070" width="120" height="60" as="geometry" />
        </mxCell>
        <mxCell id="9acUtYvUh7u0fkvaaSKx-22" value="yes" style="text;html=1;align=center;verticalAlign=middle;resizable=0;points=[];autosize=1;strokeColor=none;fillColor=none;" vertex="1" parent="1">
          <mxGeometry x="640" y="820" width="40" height="30" as="geometry" />
        </mxCell>
        <mxCell id="9acUtYvUh7u0fkvaaSKx-23" value="yes" style="text;html=1;align=center;verticalAlign=middle;resizable=0;points=[];autosize=1;strokeColor=none;fillColor=none;" vertex="1" parent="1">
          <mxGeometry x="640" y="950" width="40" height="30" as="geometry" />
        </mxCell>
        <mxCell id="9acUtYvUh7u0fkvaaSKx-24" value="yes" style="text;html=1;align=center;verticalAlign=middle;resizable=0;points=[];autosize=1;strokeColor=none;fillColor=none;" vertex="1" parent="1">
          <mxGeometry x="640" y="1070" width="40" height="30" as="geometry" />
        </mxCell>
        <mxCell id="9acUtYvUh7u0fkvaaSKx-28" value="" style="edgeStyle=orthogonalEdgeStyle;rounded=0;orthogonalLoop=1;jettySize=auto;html=1;" edge="1" parent="1" source="9acUtYvUh7u0fkvaaSKx-25" target="9acUtYvUh7u0fkvaaSKx-27">
          <mxGeometry relative="1" as="geometry" />
        </mxCell>
        <mxCell id="9acUtYvUh7u0fkvaaSKx-35" value="" style="edgeStyle=orthogonalEdgeStyle;rounded=0;orthogonalLoop=1;jettySize=auto;html=1;" edge="1" parent="1" source="9acUtYvUh7u0fkvaaSKx-25" target="9acUtYvUh7u0fkvaaSKx-34">
          <mxGeometry relative="1" as="geometry" />
        </mxCell>
        <mxCell id="9acUtYvUh7u0fkvaaSKx-25" value="是否包码绑定" style="rhombus;whiteSpace=wrap;html=1;" vertex="1" parent="1">
          <mxGeometry x="560" y="1180" width="80" height="80" as="geometry" />
        </mxCell>
        <mxCell id="9acUtYvUh7u0fkvaaSKx-30" value="" style="edgeStyle=orthogonalEdgeStyle;rounded=0;orthogonalLoop=1;jettySize=auto;html=1;" edge="1" parent="1" source="9acUtYvUh7u0fkvaaSKx-27" target="9acUtYvUh7u0fkvaaSKx-29">
          <mxGeometry relative="1" as="geometry" />
        </mxCell>
        <mxCell id="9acUtYvUh7u0fkvaaSKx-38" value="" style="edgeStyle=orthogonalEdgeStyle;rounded=0;orthogonalLoop=1;jettySize=auto;html=1;" edge="1" parent="1" source="9acUtYvUh7u0fkvaaSKx-27" target="9acUtYvUh7u0fkvaaSKx-37">
          <mxGeometry relative="1" as="geometry" />
        </mxCell>
        <mxCell id="9acUtYvUh7u0fkvaaSKx-27" value="是否索引绑定" style="rhombus;whiteSpace=wrap;html=1;" vertex="1" parent="1">
          <mxGeometry x="560" y="1370" width="80" height="80" as="geometry" />
        </mxCell>
        <mxCell id="9acUtYvUh7u0fkvaaSKx-29" value="未启用&lt;div&gt;return 标签未启用&lt;/div&gt;" style="whiteSpace=wrap;html=1;rounded=1;" vertex="1" parent="1">
          <mxGeometry x="540" y="1500" width="120" height="60" as="geometry" />
        </mxCell>
        <mxCell id="9acUtYvUh7u0fkvaaSKx-31" value="no" style="text;html=1;align=center;verticalAlign=middle;resizable=0;points=[];autosize=1;strokeColor=none;fillColor=none;" vertex="1" parent="1">
          <mxGeometry x="560" y="1140" width="40" height="30" as="geometry" />
        </mxCell>
        <mxCell id="9acUtYvUh7u0fkvaaSKx-32" value="no" style="text;html=1;align=center;verticalAlign=middle;resizable=0;points=[];autosize=1;strokeColor=none;fillColor=none;" vertex="1" parent="1">
          <mxGeometry x="560" y="1290" width="40" height="30" as="geometry" />
        </mxCell>
        <mxCell id="9acUtYvUh7u0fkvaaSKx-33" value="no" style="text;html=1;align=center;verticalAlign=middle;resizable=0;points=[];autosize=1;strokeColor=none;fillColor=none;" vertex="1" parent="1">
          <mxGeometry x="560" y="1450" width="40" height="30" as="geometry" />
        </mxCell>
        <mxCell id="9acUtYvUh7u0fkvaaSKx-41" value="" style="edgeStyle=orthogonalEdgeStyle;rounded=0;orthogonalLoop=1;jettySize=auto;html=1;" edge="1" parent="1" source="9acUtYvUh7u0fkvaaSKx-34" target="9acUtYvUh7u0fkvaaSKx-40">
          <mxGeometry relative="1" as="geometry" />
        </mxCell>
        <mxCell id="9acUtYvUh7u0fkvaaSKx-48" value="" style="edgeStyle=orthogonalEdgeStyle;rounded=0;orthogonalLoop=1;jettySize=auto;html=1;entryX=0.5;entryY=0;entryDx=0;entryDy=0;" edge="1" parent="1" source="9acUtYvUh7u0fkvaaSKx-34" target="9acUtYvUh7u0fkvaaSKx-50">
          <mxGeometry relative="1" as="geometry">
            <mxPoint x="720" y="1290" as="targetPoint" />
          </mxGeometry>
        </mxCell>
        <mxCell id="9acUtYvUh7u0fkvaaSKx-34" value="是否过期" style="rhombus;whiteSpace=wrap;html=1;" vertex="1" parent="1">
          <mxGeometry x="730" y="1180" width="80" height="80" as="geometry" />
        </mxCell>
        <mxCell id="9acUtYvUh7u0fkvaaSKx-36" value="yes" style="text;html=1;align=center;verticalAlign=middle;resizable=0;points=[];autosize=1;strokeColor=none;fillColor=none;" vertex="1" parent="1">
          <mxGeometry x="640" y="1188" width="40" height="30" as="geometry" />
        </mxCell>
        <mxCell id="9acUtYvUh7u0fkvaaSKx-44" value="" style="edgeStyle=orthogonalEdgeStyle;rounded=0;orthogonalLoop=1;jettySize=auto;html=1;" edge="1" parent="1" source="9acUtYvUh7u0fkvaaSKx-37" target="9acUtYvUh7u0fkvaaSKx-43">
          <mxGeometry relative="1" as="geometry" />
        </mxCell>
        <mxCell id="9acUtYvUh7u0fkvaaSKx-53" value="" style="edgeStyle=orthogonalEdgeStyle;rounded=0;orthogonalLoop=1;jettySize=auto;html=1;" edge="1" parent="1" source="9acUtYvUh7u0fkvaaSKx-37" target="9acUtYvUh7u0fkvaaSKx-52">
          <mxGeometry relative="1" as="geometry" />
        </mxCell>
        <mxCell id="9acUtYvUh7u0fkvaaSKx-37" value="是否过期" style="rhombus;whiteSpace=wrap;html=1;" vertex="1" parent="1">
          <mxGeometry x="730" y="1370" width="80" height="80" as="geometry" />
        </mxCell>
        <mxCell id="9acUtYvUh7u0fkvaaSKx-39" value="yes" style="text;html=1;align=center;verticalAlign=middle;resizable=0;points=[];autosize=1;strokeColor=none;fillColor=none;" vertex="1" parent="1">
          <mxGeometry x="640" y="1380" width="40" height="30" as="geometry" />
        </mxCell>
        <mxCell id="9acUtYvUh7u0fkvaaSKx-40" value="return 标签已过期" style="rounded=1;whiteSpace=wrap;html=1;" vertex="1" parent="1">
          <mxGeometry x="860" y="1190" width="120" height="60" as="geometry" />
        </mxCell>
        <mxCell id="9acUtYvUh7u0fkvaaSKx-42" value="yes" style="text;html=1;align=center;verticalAlign=middle;resizable=0;points=[];autosize=1;strokeColor=none;fillColor=none;" vertex="1" parent="1">
          <mxGeometry x="810" y="1188" width="40" height="30" as="geometry" />
        </mxCell>
        <mxCell id="9acUtYvUh7u0fkvaaSKx-43" value="return 标签已过期" style="rounded=1;whiteSpace=wrap;html=1;" vertex="1" parent="1">
          <mxGeometry x="860" y="1380" width="120" height="60" as="geometry" />
        </mxCell>
        <mxCell id="9acUtYvUh7u0fkvaaSKx-50" value="return 正常标签" style="rounded=1;whiteSpace=wrap;html=1;" vertex="1" parent="1">
          <mxGeometry x="710" y="1290" width="120" height="60" as="geometry" />
        </mxCell>
        <mxCell id="9acUtYvUh7u0fkvaaSKx-51" value="no" style="text;html=1;align=center;verticalAlign=middle;resizable=0;points=[];autosize=1;strokeColor=none;fillColor=none;" vertex="1" parent="1">
          <mxGeometry x="730" y="1260" width="40" height="30" as="geometry" />
        </mxCell>
        <mxCell id="9acUtYvUh7u0fkvaaSKx-52" value="return 正常标签" style="whiteSpace=wrap;html=1;rounded=1;" vertex="1" parent="1">
          <mxGeometry x="710" y="1500" width="120" height="60" as="geometry" />
        </mxCell>
        <mxCell id="9acUtYvUh7u0fkvaaSKx-54" value="no" style="text;html=1;align=center;verticalAlign=middle;resizable=0;points=[];autosize=1;strokeColor=none;fillColor=none;" vertex="1" parent="1">
          <mxGeometry x="730" y="1450" width="40" height="30" as="geometry" />
        </mxCell>
        <mxCell id="9acUtYvUh7u0fkvaaSKx-55" value="yes" style="text;html=1;align=center;verticalAlign=middle;resizable=0;points=[];autosize=1;strokeColor=none;fillColor=none;" vertex="1" parent="1">
          <mxGeometry x="807" y="1380" width="40" height="30" as="geometry" />
        </mxCell>
      </root>
    </mxGraphModel>
  </diagram>
</mxfile>
